<?xml version="1.0" encoding="utf-8"?>
<!-- Generator: Adobe Illustrator 22.1.0, SVG Export Plug-In . SVG Version: 6.00 Build 0)  -->
<svg version="1.1" xmlns="http://www.w3.org/2000/svg" xmlns:xlink="http://www.w3.org/1999/xlink" x="0px" y="0px"
	 viewBox="0 0 2048 2048" style="enable-background:new 0 0 2048 2048;" xml:space="preserve">
<style type="text/css">
	.st0{fill:#00FFFF;stroke:#00FFFF;stroke-width:2;stroke-miterlimit:10;}
	.st1{fill:#FFFFFF;stroke:#00FFFF;stroke-width:2;stroke-miterlimit:10;}
	.st2{fill:none;stroke:#000000;stroke-width:11;stroke-miterlimit:10;}
	.st3{fill:none;stroke:#FF0000;stroke-width:2;stroke-miterlimit:10;}
</style>
<g id="Layer_2">
	<path class="st0" d="M603.8,1313.3c-30.6-21.2-25.9-18.8-32.5-0.6c-3.8,10.7-26.7-8.7-26.7-8.7s-87.9,129.6-109.4,271.8
		s73.4,218.3,282,222.5s606.1-2.2,606.1-2.2s132.9-7.8,181.7-51c48.8-43.2,79.8-77.2,55.1-206.5c0,0-66.1-196.4-90.5-224.6
		c-24.4-28.1-25.9-18.8-32.5-0.6c-3.8,10.7-26.7-8.7-26.7-8.7l13.5,9.4c-30.6-21.2-25.9-18.8-32.5-0.6c-3.8,10.7-26.7-8.7-26.7-8.7
		l12.1,8.4c-30.6-21.2-25.9-18.8-32.5-0.6c-3.8,10.7-26.7-8.7-26.7-8.7l13.5,9.4c-30.6-21.2-25.9-18.8-32.5-0.6
		c-3.8,10.7-26.7-8.7-26.7-8.7l15.8,10.5c-30.6-21.2-25.9-18.8-32.5-0.6c-3.8,10.7-26.7-8.7-26.7-8.7l13.5,9.4
		c-30.6-21.2-25.9-18.8-32.5-0.6c-3.8,10.7-26.7-8.7-26.7-8.7l12.1,8.4c-30.6-21.2-25.9-18.8-32.5-0.6c-3.8,10.7-26.7-8.7-26.7-8.7
		l13.5,9.4c-30.6-21.2-25.9-18.8-32.5-0.6c-3.8,10.7-26.7-8.7-26.7-8.7l15.3,10.3c-30.6-21.2-25.9-18.8-32.5-0.6
		c-3.8,10.7-26.7-8.7-26.7-8.7l13.5,9.4c-30.6-21.2-25.9-18.8-32.5-0.6c-3.8,10.7-26.7-8.7-26.7-8.7l12.1,8.4
		c-30.6-21.2-25.9-18.8-32.5-0.6c-3.8,10.7-26.7-8.7-26.7-8.7l13.5,9.4c-30.6-21.2-25.9-18.8-32.5-0.6c-3.8,10.7-26.7-8.7-26.7-8.7
		l15.4,10.3c-30.6-21.2-25.9-18.8-32.5-0.6c-3.8,10.7-26.7-8.7-26.7-8.7l13.5,9.4c-30.6-21.2-25.9-18.8-32.5-0.6
		c-3.8,10.7-26.7-8.7-26.7-8.7l12.1,8.4c-30.6-21.2-25.9-18.8-32.5-0.6c-3.8,10.7-26.7-8.7-26.7-8.7l13.5,9.4
		c-30.6-21.2-25.9-18.8-32.5-0.6c-3.8,10.7-26.7-8.7-26.7-8.7l15.3,10.3c-30.6-21.2-25.9-18.8-32.5-0.6c-3.8,10.7-26.7-8.7-26.7-8.7
		l13.5,9.4c-30.6-21.2-25.9-18.8-32.5-0.6c-3.8,10.7-26.7-8.7-26.7-8.7l12.1,8.4c-30.6-21.2-25.9-18.8-32.5-0.6
		c-3.8,10.7-26.7-8.7-26.7-8.7"/>
	<circle class="st1" cx="666.3" cy="1502.3" r="27.3"/>
	<circle class="st1" cx="1196.1" cy="1520.6" r="45.6"/>
	<circle class="st1" cx="926.5" cy="1396.5" r="17.5"/>
	<circle class="st1" cx="1339" cy="1689" r="30"/>
	<circle class="st1" cx="861.3" cy="1675.3" r="16.3"/>
</g>
<g id="Layer_1">
	<g>
		<path class="st2" d="M999.3,1798.1c288.6,0,567.6,38.8,567.6-192.2s-381-666.1-381-996.1c0-316.5,0.3-328.9,0.3-328.9"/>
		<path class="st2" d="M1187.4,286.4c0,0,62,8,53.6-46.6c-8.2-53.4-241-49-241-49"/>
	</g>
	<g>
		<path class="st2" d="M999.3,1798.1c-288.6,0-567.6,38.8-567.6-192.2s381-666.1,381-996.1c0-316.5-0.3-328.9-0.3-328.9"/>
		<path class="st2" d="M811.2,286.4c0,0-62,8-53.6-46.6c8.2-53.4,241-49,241-49h1.5"/>
	</g>
	<path class="st3" d="M654.2,1309.1"/>
	<circle class="st0" cx="949.1" cy="838.1" r="19.5"/>
	<circle class="st0" cx="1150.5" cy="1110" r="16.9"/>
	<circle class="st0" cx="881.2" cy="1086.7" r="28.1"/>
	<circle class="st0" cx="1075.5" cy="513" r="30.4"/>
	<circle class="st0" cx="682.1" cy="1175.6" r="10.5"/>
	<circle class="st0" cx="1269.8" cy="1229.3" r="13.2"/>
	<circle class="st0" cx="871.5" cy="141.5" r="26.5"/>
	<circle class="st0" cx="1106" cy="74" r="45"/>
	<circle class="st0" cx="923" cy="383" r="14"/>
</g>
</svg>
